<svg width="50" height="34" viewBox="0 0 50 34" fill="none" xmlns="http://www.w3.org/2000/svg">
<path d="M25 17C26.1935 17 27.3381 16.5259 28.182 15.682C29.0259 14.8381 29.5 13.6935 29.5 12.5C29.5 11.3065 29.0259 10.1619 28.182 9.31802C27.3381 8.47411 26.1935 8 25 8C23.8065 8 22.6619 8.47411 21.818 9.31802C20.9741 10.1619 20.5 11.3065 20.5 12.5C20.5 13.6935 20.9741 14.8381 21.818 15.682C22.6619 16.5259 23.8065 17 25 17ZM28 12.5C28 13.2956 27.6839 14.0587 27.1213 14.6213C26.5587 15.1839 25.7956 15.5 25 15.5C24.2044 15.5 23.4413 15.1839 22.8787 14.6213C22.3161 14.0587 22 13.2956 22 12.5C22 11.7044 22.3161 10.9413 22.8787 10.3787C23.4413 9.81607 24.2044 9.5 25 9.5C25.7956 9.5 26.5587 9.81607 27.1213 10.3787C27.6839 10.9413 28 11.7044 28 12.5ZM34 24.5C34 26 32.5 26 32.5 26H17.5C17.5 26 16 26 16 24.5C16 23 17.5 18.08 25 18.08C32.5 18.08 34 23 34 24.5ZM32.5 24.494C32.4985 24.125 32.269 23.015 31.252 21.998C30.274 21.02 28.4335 19.4 25 19.4C21.565 19.4 19.726 21.02 18.748 21.998C17.731 23.015 17.503 24.125 17.5 24.494H32.5Z" fill="#676767"/>
<path d="M49 0V34H51V0H49Z" fill="#DCDCDC" mask="url(#path-1-inside-1_362_198)"/>
</svg>
