<svg xmlns="http://www.w3.org/2000/svg" xmlns:xlink="http://www.w3.org/1999/xlink" viewBox="0 0 1080 1080"><defs><style>.cls-1{fill:url(#linear-gradient);}</style><linearGradient id="linear-gradient" x1="-61.26" y1="839.39" x2="1138" y2="156.02" gradientUnits="userSpaceOnUse"><stop offset="0" stop-color="#fff"/><stop offset="0" stop-color="#f7f7f7"/><stop offset="0" stop-color="#00044c"/><stop offset="0.17" stop-color="#051056"/><stop offset="0.51" stop-color="#0e2767"/><stop offset="1" stop-color="#00aeef"/></linearGradient></defs><g id="Layer_2" data-name="Layer 2"><path class="cls-1" d="M605.23,592.81V747.58a34.3,34.3,0,0,0,34.8,34.3c76.7-1.13,209.85-28,264.08-190.65,0,0,121-9.49,139.95-144.7,16.5-117.52-90.61-174.67-143.85-172a6.58,6.58,0,0,0-4.72,2.37h0l.06,0L792.74,397.06l-.12-.1v.15H697.69a34.29,34.29,0,0,0-24.88,10.4,44.28,44.28,0,1,1,1.61-59.34,35.13,35.13,0,0,0,26.65,12.57h70.51a9.48,9.48,0,0,0,7.21-3.32L842.44,283a33.29,33.29,0,0,0-3.53-46.77C786.84,190.93,690.6,135.61,578.34,207l-.83-.46L448.34,288.24a9.5,9.5,0,0,0-4.42,8V472.62a9.49,9.49,0,0,0,9.49,9.49H783.09a35,35,0,0,0,26.56-12.23,44.3,44.3,0,1,1,3.08,60.89,35.39,35.39,0,0,0-24.4-9.91H414.67a9.49,9.49,0,0,1-9.49-9.49h0V269.76h.08l-.05-.08,94.08-59.54c13.42-8.49,9-29.16-6.68-31.4-55.14-7.86-124.26,3.19-167.29,86.72,0,0-123.93,11.35-170.14,103.4a44.73,44.73,0,0,0,16.26,57.88L279,494.36a9.48,9.48,0,0,1,4.44,8l.64,157.19a34.84,34.84,0,0,0,12.05,26.26,44.31,44.31,0,1,1-59.8,1.84,35.64,35.64,0,0,0,11.06-25.84l-1.26-138.12a9.46,9.46,0,0,0-4.46-7.95L151,459a33.13,33.13,0,0,0-45.51,10.21c-32.2,50.48-63,142.3,36.44,243.84,0,0,4.54,207.53,206.38,145.19a11.6,11.6,0,0,1,14.92,9.9l6.62,64.07c2.43,23.44,31.13,33.39,47.55,16.47l127-130.84a78.5,78.5,0,0,0,22.17-54.68V641a9.49,9.49,0,0,0-9.49-9.49H465a34.59,34.59,0,0,0-24.87,10.27,44.28,44.28,0,1,1,.83-60.75,35.56,35.56,0,0,0,26.14,11.74h99.41"/></g></svg>