<svg width="17" height="16" viewBox="0 0 17 16" fill="none" xmlns="http://www.w3.org/2000/svg">
<path d="M12.7419 10.3432C13.7103 9.02177 14.144 7.3834 13.9563 5.75589C13.7686 4.12838 12.9733 2.63176 11.7296 1.56544C10.4858 0.49912 8.88526 -0.0582551 7.24818 0.00482458C5.6111 0.0679042 4.0582 0.746787 2.90016 1.90565C1.74213 3.06452 1.06436 4.6179 1.00245 6.25503C0.940542 7.89215 1.49906 9.49229 2.56627 10.7353C3.63348 11.9783 5.13067 12.7725 6.75831 12.9591C8.38596 13.1456 10.024 12.7107 11.3448 11.7414H11.3438C11.3738 11.7814 11.4058 11.8194 11.4418 11.8564L15.2922 15.7068C15.4797 15.8944 15.7341 15.9999 15.9994 16C16.2647 16.0001 16.5192 15.8948 16.7068 15.7073C16.8945 15.5197 17 15.2653 17.0001 15C17.0001 14.7348 16.8948 14.4803 16.7073 14.2926L12.8569 10.4422C12.8212 10.406 12.7827 10.3736 12.7419 10.3432ZM12.9999 6.49882C12.9999 7.22116 12.8577 7.93643 12.5812 8.60379C12.3048 9.27115 11.8996 9.87753 11.3889 10.3883C10.8781 10.8991 10.2717 11.3043 9.60435 11.5807C8.93699 11.8571 8.22172 11.9994 7.49937 11.9994C6.77703 11.9994 6.06175 11.8571 5.3944 11.5807C4.72704 11.3043 4.12066 10.8991 3.60988 10.3883C3.09911 9.87753 2.69394 9.27115 2.41751 8.60379C2.14108 7.93643 1.9988 7.22116 1.9988 6.49882C1.9988 5.03998 2.57833 3.64089 3.60988 2.60933C4.64144 1.57777 6.04053 0.998251 7.49937 0.998251C8.95821 0.998251 10.3573 1.57777 11.3889 2.60933C12.4204 3.64089 12.9999 5.03998 12.9999 6.49882Z" fill="white"/>
</svg>
